<svg id="arrow_right_2" data-name="arrow right 2" xmlns="http://www.w3.org/2000/svg" viewBox="0 0 708.78 1034.35"><defs><style>.cls-1,.cls-2{fill:#fff;stroke:#fff;stroke-miterlimit:10;}.cls-1{stroke-width:61px;}.cls-2{stroke-width:126px;}</style></defs><title>arrow-right-ico-white</title><path class="cls-1" d="M232.36,91.61V54.69a1911.85,1911.85,0,0,1,220.09,12.5A1669.71,1669.71,0,0,1,634.52,98.28l-11.33,39.65c-23.48-5.82-50.91-12-82.11-17.79-19.61-3.67-48.48-8.66-84.27-13.38-26.73-3.53-75.43-9.29-138.14-12.6C285.12,92.39,255.82,91.76,232.36,91.61Z" transform="translate(-201.86 -24.19)"/><path class="cls-2" d="M803.35,538.78c0-148.65-222.1-269.34-497.29-271.08V243.41c299.1,0,541.58,132.74,541.58,296.47S605.16,836.36,306.06,836.36V809.87C581.25,808.12,803.35,687.43,803.35,538.78Z" transform="translate(-201.86 -24.19)"/><path class="cls-1" d="M232.36,991.11V1028a1911.85,1911.85,0,0,0,220.09-12.5,1669.71,1669.71,0,0,0,182.07-31.09l-11.33-39.65c-23.48,5.82-50.91,12-82.11,17.79-19.61,3.67-48.48,8.66-84.27,13.38-26.73,3.53-75.43,9.29-138.14,12.6C285.12,990.33,255.82,991,232.36,991.11Z" transform="translate(-201.86 -24.19)"/></svg>