<svg id="ARROW_LEFT_2" data-name="ARROW LEFT 2" xmlns="http://www.w3.org/2000/svg" viewBox="0 0 708.78 1034.35"><defs><style>.cls-1,.cls-2{fill:#fff;stroke:#fff;stroke-miterlimit:10;}.cls-1{stroke-width:61px;}.cls-2{stroke-width:126px;}</style></defs><title>arrow-left-ico-white</title><path class="cls-1" d="M847.64,90.25V53.33a1911.85,1911.85,0,0,0-220.09,12.5A1669.71,1669.71,0,0,0,445.48,96.92l11.33,39.65c23.48-5.82,50.91-12,82.11-17.79,19.61-3.67,48.48-8.66,84.27-13.38,26.73-3.53,75.43-9.29,138.14-12.6C794.88,91,824.18,90.4,847.64,90.25Z" transform="translate(-169.36 -22.83)"/><path class="cls-2" d="M276.65,537.42c0-148.65,222.1-269.34,497.29-271.08V242.05c-299.1,0-541.58,132.74-541.58,296.47S474.84,835,773.94,835V808.51C498.75,806.76,276.65,686.07,276.65,537.42Z" transform="translate(-169.36 -22.83)"/><path class="cls-1" d="M847.64,989.75v36.92a1911.85,1911.85,0,0,1-220.09-12.5,1669.71,1669.71,0,0,1-182.07-31.09l11.33-39.65c23.48,5.82,50.91,12,82.11,17.79,19.61,3.67,48.48,8.66,84.27,13.38,26.73,3.53,75.43,9.29,138.14,12.6C794.88,989,824.18,989.6,847.64,989.75Z" transform="translate(-169.36 -22.83)"/></svg>