<svg id="Capa_1_copia" data-name="Capa 1 copia" xmlns="http://www.w3.org/2000/svg" viewBox="0 0 943.46 497.55"><title>show-password</title><path d="M610.72,295.38A506.46,506.46,0,0,0,540,291.26a690.14,690.14,0,0,0-80,13.55C275.37,347.39,145.4,457.65,68.27,540c69.64,80.9,202.91,207.69,397.2,241A573.5,573.5,0,0,0,540,788.78a542.14,542.14,0,0,0,89.44-8.12C824.76,746.36,953.05,612.25,1011.73,540,947.3,461.36,810.82,321.22,610.72,295.38Zm-62.08,438c-103.53,0-187.46-83.93-187.46-187.46s83.93-187.46,187.46-187.46S736.1,442.41,736.1,545.94,652.17,733.4,548.64,733.4Z" transform="translate(-68.27 -291.22)"/><circle cx="480.37" cy="254.71" r="112.4"/></svg>