<svg id="Capa_1_copia" data-name="Capa 1 copia" xmlns="http://www.w3.org/2000/svg" viewBox="0 0 943.46 497.55"><title>dont-show-password</title><path d="M610.72,295.36A506.46,506.46,0,0,0,540,291.24a691.37,691.37,0,0,0-77.31,13L498,365.38a187.82,187.82,0,0,1,50.62-6.92c103.53,0,187.46,83.93,187.46,187.46A186.89,186.89,0,0,1,679.65,680l43.49,75.33C866.32,702.56,963,600,1011.73,540,947.3,461.34,810.82,321.2,610.72,295.36Z" transform="translate(-68.27 -291.21)"/><path d="M605.1,724.72a187.39,187.39,0,0,1-56.46,8.66c-103.53,0-187.46-83.93-187.46-187.46a187,187,0,0,1,60.87-138.25l-45.11-78.13C235.79,381.37,133.27,470.59,68.27,540c69.64,80.9,202.91,207.69,397.2,241A571.77,571.77,0,0,0,540,788.76a542.14,542.14,0,0,0,89.44-8.12c2.41-.42,4.79-.87,7.18-1.32Z" transform="translate(-68.27 -291.21)"/><path d="M640,611.36a112.4,112.4,0,0,0-91.39-177.84q-5.55,0-11,.53Z" transform="translate(-68.27 -291.21)"/><path d="M461.14,475.38a112.39,112.39,0,0,0,87.5,182.94A114,114,0,0,0,566,657Z" transform="translate(-68.27 -291.21)"/><path d="M672.28,773.08q-17.87,3.18-36,6.23-12,2-23.82,3.91Q483.94,560.6,355.45,338L409.6,316.6Z" transform="translate(-68.27 -291.21)"/></svg>