<svg id="usuario" xmlns="http://www.w3.org/2000/svg" viewBox="0 0 664.38 892.08"><defs><style>.cls-1{fill:none;stroke:#fff;stroke-miterlimit:10;stroke-width:35px;}.cls-2{fill:#fff;}</style></defs><title>user-ico-white</title><path class="cls-1" d="M741.34,613.25H652.19V550c46.87-36.43,77.3-95.11,77.3-161.31,0-110.54-84.84-200.16-189.49-200.16S350.51,278.18,350.51,388.72c0,66.2,30.43,124.88,77.3,161.31v63.22H338.66A113.35,113.35,0,0,0,225.31,726.6V915.35a38.41,38.41,0,0,0,38.41,38.41H816.28a38.41,38.41,0,0,0,38.41-38.41V726.6A113.35,113.35,0,0,0,741.34,613.25Z" transform="translate(-207.81 -79.18)"/><rect class="cls-2" x="498.93" y="200.6" width="99.78" height="218.94" rx="25.04"/><path class="cls-1" d="M305.36,324.26C305.36,198.57,410.41,96.68,540,96.68S774.64,198.57,774.64,324.26" transform="translate(-207.81 -79.18)"/><rect class="cls-2" x="66.48" y="201.25" width="99.5" height="218.94" rx="25.04"/></svg>