<svg id="dico_white" data-name="dico white" xmlns="http://www.w3.org/2000/svg" viewBox="0 0 862 888"><defs><style>.cls-1{fill:#fff;}</style></defs><title>album-ico-white</title><circle class="cls-1" cx="431.36" cy="431.46" r="70.54"/><path class="cls-1" d="M540,109c-238,0-431,193-431,431S302,971,540,971,971,778,971,540,778,109,540,109ZM389,540A151,151,0,1,1,540,691,151,151,0,0,1,389,540Zm509.35,5.5a357.74,357.74,0,0,1-358,352h-5.5v-34h5.5c178.68,0,324-145.37,324-324S719,215.41,540.36,215.41h-5.5V215C358,217.83,215,362.53,215,540v5.5H181V540a359,359,0,1,1,718,0v5.5Z" transform="translate(-109 -109)"/><rect class="cls-1" y="789" width="862" height="99"/></svg>