<svg id="error_no_image" data-name="error no image" xmlns="http://www.w3.org/2000/svg" viewBox="0 0 783.39 785.47"><defs><style>.cls-1,.cls-2{fill:#fff;stroke:#fff;stroke-miterlimit:10;}.cls-1{stroke-width:3px;}.cls-2{stroke-width:0.75px;}</style></defs><title>error-no-image-ico-white</title><path class="cls-1" d="M829.26,294.12a147.17,147.17,0,0,1,97.27,98.94V798.17a131.41,131.41,0,0,1-34.77,65.52c-31,31.5-68.43,36.91-79.55,38.1H219.92L277.41,843H812.88a114.67,114.67,0,0,0,59.5-64.17q-.35-186.85-.67-373.69A99.15,99.15,0,0,0,839.62,365c-27.16-19.83-56.09-19.24-64.84-18.72Z" transform="translate(-148.3 -147.26)"/><path class="cls-1" d="M672.83,449.55c7.42,7.39,78.57,80.61,61.17,180.83-11.18,64.33-52.48,103.18-64.11,113.44-12.33,10.87-58.16,48.56-127.08,49.67-86.38,1.4-141-55.75-149.75-65.17l29.42-63.18c7,12.81,27.93,46.54,68.85,62.17,57,21.79,126.2-1.8,162-53,32.37-46.38,30.47-105.56,7.85-148.85-18.12-34.68-46.19-52.76-59.5-60.17Z" transform="translate(-148.3 -147.26)"/><path class="cls-1" d="M886.42,150.4a33.21,33.21,0,0,1,40.11,46.79l-730,731.34a33.47,33.47,0,0,1-45.46-40.11Z" transform="translate(-148.3 -147.26)"/><path class="cls-1" d="M703.92,230s-67.19-46.13-71.2-46.13c-27.74,0-45.15-2.06-97.94,0-32.92,1.29-59.65.67-76.54,0A108.4,108.4,0,0,0,378,230a138.42,138.42,0,0,1-40.74,41.67c-35.63,23.45-72,23.26-85.61,22.5A160.83,160.83,0,0,0,151.06,396.4v360a30.87,30.87,0,0,0,28.17,15.8c16.55-.77,24.82-14.92,25.32-15.8q2-168.46,4-336.92a89.29,89.29,0,0,1,56.15-69.69,194.62,194.62,0,0,0,68.52-10.2c14.16-4.81,30.11-10.23,46.8-23.4,24.87-19.63,26.64-37,55.82-60.49A172.12,172.12,0,0,1,460.75,239l154.42-1,51.64,33.09A30.45,30.45,0,0,0,703.92,230Z" transform="translate(-148.3 -147.26)"/><path class="cls-2" d="M408.44,558.18a151.68,151.68,0,0,1,98.27-98.94c.63-.8,12-15.67,5.58-32.55-4.42-11.64-14.41-16.68-16.79-17.8A179.15,179.15,0,0,0,353.62,540c-.33,12.4,6.38,23.75,16.95,28.75C383.29,574.75,399.43,570.55,408.44,558.18Z" transform="translate(-148.3 -147.26)"/></svg>