<svg id="upload" xmlns="http://www.w3.org/2000/svg" viewBox="0 0 987.64 714.39"><defs><style>.cls-1{fill:#fff;}</style></defs><title>upload-ico-white</title><path class="cls-1" d="M341,788.3q-11,2.61-22.16,4.11l11.16-1.5a224.77,224.77,0,0,1-57.48.09l11.17,1.5a229.07,229.07,0,0,1-57.75-15.72L236,781a194.25,194.25,0,0,1-42.18-24.56l8.5,6.57a191,191,0,0,1-32.46-32.77l6.57,8.5a208.93,208.93,0,0,1-26.59-45.69l4.23,10a200.31,200.31,0,0,1-13.43-48.81l1.5,11.16a179,179,0,0,1-.16-46.37l-1.5,11.17a173.67,173.67,0,0,1,12.09-43.75l-4.24,10A190.53,190.53,0,0,1,172,556.17l-6.56,8.5a208.82,208.82,0,0,1,36.89-36.78l-8.5,6.57A223.57,223.57,0,0,1,243,505.93l-10,4.24a233.72,233.72,0,0,1,57.48-15.6l-11.17,1.5q9.76-1.29,19.59-1.83c18.44-1,35.58-12.33,40.5-30.83a287.81,287.81,0,0,1,12.51-36.84l-4.23,10A280.08,280.08,0,0,1,383.6,375l-6.56,8.5a281.79,281.79,0,0,1,49.39-49.43l-8.5,6.57a279.74,279.74,0,0,1,61-35.76l-10,4.23a272.53,272.53,0,0,1,68.38-18.83l-11.16,1.5a267,267,0,0,1,69.52-.14l-11.16-1.5a268,268,0,0,1,67.39,18.29l-10-4.24a274.59,274.59,0,0,1,60.57,35.42l-8.51-6.57a280.39,280.39,0,0,1,49.55,49.74l-6.57-8.5a280.76,280.76,0,0,1,35.71,61.43l-4.24-10a281.1,281.1,0,0,1,19.08,70.49L785.89,485l.19,1.43,1.5,11.17a31.7,31.7,0,0,0,7.52,14.28c5.17,6.69,13.19,13.5,21.81,15.05a245.63,245.63,0,0,1,51.11,15l-10-4.23A228.62,228.62,0,0,1,908.43,567l-8.5-6.57a210.18,210.18,0,0,1,36.94,37l-6.56-8.5a186,186,0,0,1,23.18,39.47l-4.23-10a161.27,161.27,0,0,1,11.13,40l-1.5-11.17A144.3,144.3,0,0,1,959,684.6l1.5-11.17a165.14,165.14,0,0,1-11.29,40.74l4.24-10a182.53,182.53,0,0,1-23.39,40l6.57-8.5a164.38,164.38,0,0,1-28.07,28.22l8.5-6.57a132.68,132.68,0,0,1-27.86,16.57l10-4.23c-11.75,4.95-24.25,7.38-36.84,9.09l11.17-1.5A873.82,873.82,0,0,1,727.16,784c-22-.83-43,19.91-42,42,1.05,23.46,18.45,41.11,42,42a886.49,886.49,0,0,0,143.92-6.54c11.78-1.49,23.72-2.87,35.25-5.82a159.54,159.54,0,0,0,31.25-12.1c22.13-11,42.14-28.13,57.53-47.41,18.21-22.83,32.29-47.58,40.91-75.66,6.83-22.2,9.9-46.58,7.32-69.75-1.41-12.59-3.22-25.12-6.82-37.29a234.69,234.69,0,0,0-13.58-34.29c-9.84-20.63-23.89-39.62-39.51-56.22-37.72-40.09-90.17-67.33-144.18-77l30.83,40.5c-3.72-28.69-9.6-56.28-20.76-83.08-6-14.41-12.32-28.54-20.18-42s-16.85-25.71-26.33-37.92c-17-22-37-40.29-59.11-57.13s-46.33-29.36-72-39.86c-52.76-21.55-111.14-25.33-166.93-15.52-54.81,9.64-105.65,36.09-147.77,72-43.09,36.73-74.76,86-92.93,139.43-2.11,6.19-4,12.44-5.65,18.75l40.5-30.83c-51.15,2.81-102.71,18.45-144.16,49.22-10.84,8.05-21.46,16.41-31.06,25.92s-17.75,19.82-25.75,30.5c-14.1,18.81-24.58,40.47-31.81,62.79-17.78,54.88-9.36,114.09,15,165.42A231,231,0,0,0,128.57,810c22.56,21.84,48.69,37.08,77.53,48.84C255.53,879,311.62,881.56,363.33,869.3c21.39-5.07,36.14-30.62,29.33-51.67-7.22-22.29-28.74-34.76-51.67-29.33Z" transform="translate(-56.6 -205.76)"/><path class="cls-1" d="M498,540V878.12a43.37,43.37,0,0,0,12.3,29.7c7.29,7.28,19.24,12.77,29.7,12.3,22.76-1,42-18.45,42-42V540a43.37,43.37,0,0,0-12.3-29.7C562.41,503,550.46,497.53,540,498c-22.76,1-42,18.45-42,42Z" transform="translate(-56.6 -205.76)"/><path class="cls-1" d="M510.3,510.3,466,554.6l-71,71L378.7,641.9a43.32,43.32,0,0,0-12.3,29.7c0,10.3,4.57,22.61,12.3,29.7,16.76,15.39,42.79,16.6,59.39,0L482.4,657l71-71L569.7,569.7A43.37,43.37,0,0,0,582,540c0-10.3-4.58-22.61-12.3-29.7-16.77-15.39-42.8-16.6-59.4,0Z" transform="translate(-56.6 -205.76)"/><path class="cls-1" d="M510.3,569.7,554.6,614l71,71,16.26,16.26a43.28,43.28,0,0,0,29.69,12.3c10.3,0,22.61-4.57,29.7-12.3,15.39-16.76,16.6-42.79,0-59.4L657,597.6l-71-71L569.7,510.3A43.37,43.37,0,0,0,540,498c-10.3,0-22.61,4.58-29.7,12.3-15.39,16.77-16.6,42.8,0,59.4Z" transform="translate(-56.6 -205.76)"/></svg>